<?xml version="1.0" encoding="utf-8" standalone="no"?><!DOCTYPE svg PUBLIC "-//W3C//DTD SVG 20010904//EN" "http://www.w3.org/TR/2001/REC-SVG-20010904/DTD/svg10.dtd"><svg xmlns="http://www.w3.org/2000/svg" width="815" height="274" xmlns:xlink="http://www.w3.org/1999/xlink"><source><![CDATA[participant Private blockchain
participant Ship
participant Island
participant Public blockchain
Private blockchain->Ship: New block headers
Ship->Island:Send lock request
Island->Public blockchain:Stores anchor\ndata on blockchain]]></source><desc></desc><defs><marker viewBox="0 0 5 5" markerWidth="5" markerHeight="5" orient="auto" refX="5" refY="2.5" id="markerArrowBlock"><path d="M 0 0 L 5 2.5 L 0 5 z"></path></marker><marker viewBox="0 0 9.6 16" markerWidth="4" markerHeight="16" orient="auto" refX="9.6" refY="8" id="markerArrowOpen"><path d="M 9.6,8 1.92,16 0,13.7 5.76,8 0,2.286 1.92,0 9.6,8 z"></path></marker></defs><g class="title"></g><g class="actor"><rect x="10" y="20" width="200" height="39" style="stroke-width: 2;" stroke="#000000" fill="#ffffff"></rect><text x="20" y="45" style="font-size: 16px; font-family: Andale Mono, monospace;"><tspan x="20">Private blockchain</tspan></text></g><g class="actor"><rect x="10" y="215.20000076293945" width="200" height="39" style="stroke-width: 2;" stroke="#000000" fill="#ffffff"></rect><text x="20" y="240.20000076293945" style="font-size: 16px; font-family: Andale Mono, monospace;"><tspan x="20">Private blockchain</tspan></text></g><line x1="110" x2="110" y1="59" y2="215.20000076293945" style="stroke-width: 2;" stroke="#000000" fill="none"></line><g class="actor"><rect x="270" y="20" width="60" height="39" style="stroke-width: 2;" stroke="#000000" fill="#ffffff"></rect><text x="280" y="45" style="font-size: 16px; font-family: Andale Mono, monospace;"><tspan x="280">Ship</tspan></text></g><g class="actor"><rect x="270" y="215.20000076293945" width="60" height="39" style="stroke-width: 2;" stroke="#000000" fill="#ffffff"></rect><text x="280" y="240.20000076293945" style="font-size: 16px; font-family: Andale Mono, monospace;"><tspan x="280">Ship</tspan></text></g><line x1="300" x2="300" y1="59" y2="215.20000076293945" style="stroke-width: 2;" stroke="#000000" fill="none"></line><g class="actor"><rect x="450" y="20" width="80" height="39" style="stroke-width: 2;" stroke="#000000" fill="#ffffff"></rect><text x="460" y="45" style="font-size: 16px; font-family: Andale Mono, monospace;"><tspan x="460">Island</tspan></text></g><g class="actor"><rect x="450" y="215.20000076293945" width="80" height="39" style="stroke-width: 2;" stroke="#000000" fill="#ffffff"></rect><text x="460" y="240.20000076293945" style="font-size: 16px; font-family: Andale Mono, monospace;"><tspan x="460">Island</tspan></text></g><line x1="490" x2="490" y1="59" y2="215.20000076293945" style="stroke-width: 2;" stroke="#000000" fill="none"></line><g class="actor"><rect x="595" y="20" width="190" height="39" style="stroke-width: 2;" stroke="#000000" fill="#ffffff"></rect><text x="605" y="45" style="font-size: 16px; font-family: Andale Mono, monospace;"><tspan x="605">Public blockchain</tspan></text></g><g class="actor"><rect x="595" y="215.20000076293945" width="190" height="39" style="stroke-width: 2;" stroke="#000000" fill="#ffffff"></rect><text x="605" y="240.20000076293945" style="font-size: 16px; font-family: Andale Mono, monospace;"><tspan x="605">Public blockchain</tspan></text></g><line x1="690" x2="690" y1="59" y2="215.20000076293945" style="stroke-width: 2;" stroke="#000000" fill="none"></line><g class="signal"><text x="120" y="89.5" style="font-size: 16px; font-family: Andale Mono, monospace;"><tspan x="120">New block headers</tspan></text><line x1="110" x2="300" y1="98" y2="98" style="stroke-width: 2; marker-end: url(&quot;#markerArrowBlock&quot;);" stroke="#000000" fill="none"></line></g><g class="signal"><text x="310" y="128.5" style="font-size: 16px; font-family: Andale Mono, monospace;"><tspan x="310">Send lock request</tspan></text><line x1="300" x2="490" y1="137" y2="137" style="stroke-width: 2; marker-end: url(&quot;#markerArrowBlock&quot;);" stroke="#000000" fill="none"></line></g><g class="signal"><text x="500" y="157.89999961853027" style="font-size: 16px; font-family: Andale Mono, monospace;"><tspan x="500">Stores anchor</tspan><tspan dy="1.2em" x="500">data on blockchain</tspan></text><line x1="490" x2="690" y1="195.20000076293945" y2="195.20000076293945" style="stroke-width: 2; marker-end: url(&quot;#markerArrowBlock&quot;);" stroke="#000000" fill="none"></line></g></svg>