<?xml version="1.0" encoding="utf-8" standalone="no"?><!DOCTYPE svg PUBLIC "-//W3C//DTD SVG 20010904//EN" "http://www.w3.org/TR/2001/REC-SVG-20010904/DTD/svg10.dtd"><svg xmlns="http://www.w3.org/2000/svg" width="1115" height="372" xmlns:xlink="http://www.w3.org/1999/xlink"><source><![CDATA[participant Private blockchain
participant Skipper
participant Inspector
participant Public blockchain
participant User
Public blockchain->Inspector: Fetch anchor transactions
Inspector->Skipper:Request lock verification
Skipper->Private blockchain:Request block headers
Private blockchain->Skipper:Send block headers
Skipper->Inspector:Send lock verification proof
Inspector->User:Show verified headers]]></source><desc></desc><defs><marker viewBox="0 0 5 5" markerWidth="5" markerHeight="5" orient="auto" refX="5" refY="2.5" id="markerArrowBlock"><path d="M 0 0 L 5 2.5 L 0 5 z"></path></marker><marker viewBox="0 0 9.6 16" markerWidth="4" markerHeight="16" orient="auto" refX="9.6" refY="8" id="markerArrowOpen"><path d="M 9.6,8 1.92,16 0,13.7 5.76,8 0,2.286 1.92,0 9.6,8 z"></path></marker></defs><g class="title"></g><g class="actor"><rect x="10" y="20" width="200" height="39" style="stroke-width: 2;" stroke="#000000" fill="#ffffff"></rect><text x="20" y="45" style="font-size: 16px; font-family: Andale Mono, monospace;"><tspan x="20">Private blockchain</tspan></text></g><g class="actor"><rect x="10" y="313" width="200" height="39" style="stroke-width: 2;" stroke="#000000" fill="#ffffff"></rect><text x="20" y="338" style="font-size: 16px; font-family: Andale Mono, monospace;"><tspan x="20">Private blockchain</tspan></text></g><line x1="110" x2="110" y1="59" y2="313" style="stroke-width: 2;" stroke="#000000" fill="none"></line><g class="actor"><rect x="295" y="20" width="90" height="39" style="stroke-width: 2;" stroke="#000000" fill="#ffffff"></rect><text x="305" y="45" style="font-size: 16px; font-family: Andale Mono, monospace;"><tspan x="305">Skipper</tspan></text></g><g class="actor"><rect x="295" y="313" width="90" height="39" style="stroke-width: 2;" stroke="#000000" fill="#ffffff"></rect><text x="305" y="338" style="font-size: 16px; font-family: Andale Mono, monospace;"><tspan x="305">Skipper</tspan></text></g><line x1="340" x2="340" y1="59" y2="313" style="stroke-width: 2;" stroke="#000000" fill="none"></line><g class="actor"><rect x="585" y="20" width="110" height="39" style="stroke-width: 2;" stroke="#000000" fill="#ffffff"></rect><text x="595" y="45" style="font-size: 16px; font-family: Andale Mono, monospace;"><tspan x="595">Inspector</tspan></text></g><g class="actor"><rect x="585" y="313" width="110" height="39" style="stroke-width: 2;" stroke="#000000" fill="#ffffff"></rect><text x="595" y="338" style="font-size: 16px; font-family: Andale Mono, monospace;"><tspan x="595">Inspector</tspan></text></g><line x1="640" x2="640" y1="59" y2="313" style="stroke-width: 2;" stroke="#000000" fill="none"></line><g class="actor"><rect x="815" y="20" width="190" height="39" style="stroke-width: 2;" stroke="#000000" fill="#ffffff"></rect><text x="825" y="45" style="font-size: 16px; font-family: Andale Mono, monospace;"><tspan x="825">Public blockchain</tspan></text></g><g class="actor"><rect x="815" y="313" width="190" height="39" style="stroke-width: 2;" stroke="#000000" fill="#ffffff"></rect><text x="825" y="338" style="font-size: 16px; font-family: Andale Mono, monospace;"><tspan x="825">Public blockchain</tspan></text></g><line x1="910" x2="910" y1="59" y2="313" style="stroke-width: 2;" stroke="#000000" fill="none"></line><g class="actor"><rect x="1025" y="20" width="60" height="39" style="stroke-width: 2;" stroke="#000000" fill="#ffffff"></rect><text x="1035" y="45" style="font-size: 16px; font-family: Andale Mono, monospace;"><tspan x="1035">User</tspan></text></g><g class="actor"><rect x="1025" y="313" width="60" height="39" style="stroke-width: 2;" stroke="#000000" fill="#ffffff"></rect><text x="1035" y="338" style="font-size: 16px; font-family: Andale Mono, monospace;"><tspan x="1035">User</tspan></text></g><line x1="1055" x2="1055" y1="59" y2="313" style="stroke-width: 2;" stroke="#000000" fill="none"></line><g class="signal"><text x="650" y="89.5" style="font-size: 16px; font-family: Andale Mono, monospace;"><tspan x="650">Fetch anchor transactions</tspan></text><line x1="910" x2="640" y1="98" y2="98" style="stroke-width: 2; marker-end: url(&quot;#markerArrowBlock&quot;);" stroke="#000000" fill="none"></line></g><g class="signal"><text x="365" y="128.5" style="font-size: 16px; font-family: Andale Mono, monospace;"><tspan x="365">Request lock verification</tspan></text><line x1="640" x2="340" y1="137" y2="137" style="stroke-width: 2; marker-end: url(&quot;#markerArrowBlock&quot;);" stroke="#000000" fill="none"></line></g><g class="signal"><text x="120" y="167.5" style="font-size: 16px; font-family: Andale Mono, monospace;"><tspan x="120">Request block headers</tspan></text><line x1="340" x2="110" y1="176" y2="176" style="stroke-width: 2; marker-end: url(&quot;#markerArrowBlock&quot;);" stroke="#000000" fill="none"></line></g><g class="signal"><text x="135" y="206.5" style="font-size: 16px; font-family: Andale Mono, monospace;"><tspan x="135">Send block headers</tspan></text><line x1="110" x2="340" y1="215" y2="215" style="stroke-width: 2; marker-end: url(&quot;#markerArrowBlock&quot;);" stroke="#000000" fill="none"></line></g><g class="signal"><text x="350" y="245.5" style="font-size: 16px; font-family: Andale Mono, monospace;"><tspan x="350">Send lock verification proof</tspan></text><line x1="340" x2="640" y1="254" y2="254" style="stroke-width: 2; marker-end: url(&quot;#markerArrowBlock&quot;);" stroke="#000000" fill="none"></line></g><g class="signal"><text x="742.5" y="284.5" style="font-size: 16px; font-family: Andale Mono, monospace;"><tspan x="742.5">Show verified headers</tspan></text><line x1="640" x2="1055" y1="293" y2="293" style="stroke-width: 2; marker-end: url(&quot;#markerArrowBlock&quot;);" stroke="#000000" fill="none"></line></g></svg>